<mxfile host="app.diagrams.net" modified="2024-04-19T15:06:48.257Z" agent="Mozilla/5.0 (Windows NT 10.0; Win64; x64) AppleWebKit/537.36 (KHTML, like Gecko) Chrome/123.0.0.0 Safari/537.36" etag="XsRm43a-VQ6cvunnexwB" version="24.2.5" type="device">
  <diagram name="Page-1" id="pqMaDXE2EQC1bhdNuAvj">
    <mxGraphModel dx="1434" dy="866" grid="1" gridSize="10" guides="1" tooltips="1" connect="1" arrows="1" fold="1" page="1" pageScale="1" pageWidth="850" pageHeight="1100" math="0" shadow="0">
      <root>
        <mxCell id="0" />
        <mxCell id="1" parent="0" />
        <mxCell id="fmB1EjqR9Dxc6LO2k5tq-1" value="Supermarket App" style="swimlane;whiteSpace=wrap;html=1;startSize=23;labelBackgroundColor=none;" vertex="1" parent="1">
          <mxGeometry x="270" y="20" width="880" height="1000" as="geometry" />
        </mxCell>
        <mxCell id="fmB1EjqR9Dxc6LO2k5tq-5" value="Sign in" style="ellipse;whiteSpace=wrap;html=1;labelBackgroundColor=none;" vertex="1" parent="fmB1EjqR9Dxc6LO2k5tq-1">
          <mxGeometry x="680" y="30" width="120" height="80" as="geometry" />
        </mxCell>
        <mxCell id="fmB1EjqR9Dxc6LO2k5tq-6" value="Sign up" style="ellipse;whiteSpace=wrap;html=1;labelBackgroundColor=none;" vertex="1" parent="fmB1EjqR9Dxc6LO2k5tq-1">
          <mxGeometry x="510" y="80" width="120" height="80" as="geometry" />
        </mxCell>
        <mxCell id="fmB1EjqR9Dxc6LO2k5tq-9" value="browse categories" style="ellipse;whiteSpace=wrap;html=1;labelBackgroundColor=none;" vertex="1" parent="fmB1EjqR9Dxc6LO2k5tq-1">
          <mxGeometry x="510" y="300" width="120" height="80" as="geometry" />
        </mxCell>
        <mxCell id="fmB1EjqR9Dxc6LO2k5tq-45" style="edgeStyle=orthogonalEdgeStyle;rounded=0;orthogonalLoop=1;jettySize=auto;html=1;exitX=0;exitY=1;exitDx=0;exitDy=0;labelBackgroundColor=none;fontColor=default;" edge="1" parent="fmB1EjqR9Dxc6LO2k5tq-1" source="fmB1EjqR9Dxc6LO2k5tq-10" target="fmB1EjqR9Dxc6LO2k5tq-12">
          <mxGeometry relative="1" as="geometry" />
        </mxCell>
        <mxCell id="fmB1EjqR9Dxc6LO2k5tq-10" value="buy items" style="ellipse;whiteSpace=wrap;html=1;labelBackgroundColor=none;" vertex="1" parent="fmB1EjqR9Dxc6LO2k5tq-1">
          <mxGeometry x="700" y="350" width="120" height="80" as="geometry" />
        </mxCell>
        <mxCell id="fmB1EjqR9Dxc6LO2k5tq-11" value="search products" style="ellipse;whiteSpace=wrap;html=1;labelBackgroundColor=none;" vertex="1" parent="fmB1EjqR9Dxc6LO2k5tq-1">
          <mxGeometry x="660" y="560" width="120" height="80" as="geometry" />
        </mxCell>
        <mxCell id="fmB1EjqR9Dxc6LO2k5tq-12" value="add to cart" style="ellipse;whiteSpace=wrap;html=1;labelBackgroundColor=none;" vertex="1" parent="fmB1EjqR9Dxc6LO2k5tq-1">
          <mxGeometry x="480" y="480" width="120" height="80" as="geometry" />
        </mxCell>
        <mxCell id="fmB1EjqR9Dxc6LO2k5tq-13" value="add item&amp;nbsp;" style="ellipse;whiteSpace=wrap;html=1;labelBackgroundColor=none;" vertex="1" parent="fmB1EjqR9Dxc6LO2k5tq-1">
          <mxGeometry x="220" y="580" width="120" height="80" as="geometry" />
        </mxCell>
        <mxCell id="fmB1EjqR9Dxc6LO2k5tq-7" value="browse shops" style="ellipse;whiteSpace=wrap;html=1;labelBackgroundColor=none;" vertex="1" parent="fmB1EjqR9Dxc6LO2k5tq-1">
          <mxGeometry x="510" y="180" width="120" height="80" as="geometry" />
        </mxCell>
        <mxCell id="fmB1EjqR9Dxc6LO2k5tq-14" value="remove item" style="ellipse;whiteSpace=wrap;html=1;labelBackgroundColor=none;" vertex="1" parent="fmB1EjqR9Dxc6LO2k5tq-1">
          <mxGeometry x="480" y="670" width="120" height="80" as="geometry" />
        </mxCell>
        <mxCell id="fmB1EjqR9Dxc6LO2k5tq-15" value="update quantity" style="ellipse;whiteSpace=wrap;html=1;labelBackgroundColor=none;" vertex="1" parent="fmB1EjqR9Dxc6LO2k5tq-1">
          <mxGeometry x="220" y="740" width="120" height="80" as="geometry" />
        </mxCell>
        <mxCell id="fmB1EjqR9Dxc6LO2k5tq-16" value="calc the total" style="ellipse;whiteSpace=wrap;html=1;labelBackgroundColor=none;" vertex="1" parent="fmB1EjqR9Dxc6LO2k5tq-1">
          <mxGeometry x="120" y="480" width="120" height="80" as="geometry" />
        </mxCell>
        <mxCell id="fmB1EjqR9Dxc6LO2k5tq-28" value="" style="endArrow=classic;html=1;rounded=0;entryX=0.5;entryY=0;entryDx=0;entryDy=0;exitX=0.392;exitY=1.05;exitDx=0;exitDy=0;exitPerimeter=0;labelBackgroundColor=none;fontColor=default;" edge="1" parent="fmB1EjqR9Dxc6LO2k5tq-1" source="fmB1EjqR9Dxc6LO2k5tq-10" target="fmB1EjqR9Dxc6LO2k5tq-11">
          <mxGeometry relative="1" as="geometry">
            <mxPoint x="330" y="370" as="sourcePoint" />
            <mxPoint x="490" y="370" as="targetPoint" />
          </mxGeometry>
        </mxCell>
        <mxCell id="fmB1EjqR9Dxc6LO2k5tq-29" value="&amp;lt;&amp;lt;include&amp;gt;&amp;gt;" style="edgeLabel;resizable=0;html=1;;align=center;verticalAlign=middle;labelBackgroundColor=none;" connectable="0" vertex="1" parent="fmB1EjqR9Dxc6LO2k5tq-28">
          <mxGeometry relative="1" as="geometry" />
        </mxCell>
        <mxCell id="fmB1EjqR9Dxc6LO2k5tq-36" value="" style="endArrow=classic;html=1;rounded=0;exitX=0;exitY=1;exitDx=0;exitDy=0;labelBackgroundColor=none;fontColor=default;" edge="1" parent="fmB1EjqR9Dxc6LO2k5tq-1" source="fmB1EjqR9Dxc6LO2k5tq-12" target="fmB1EjqR9Dxc6LO2k5tq-13">
          <mxGeometry relative="1" as="geometry">
            <mxPoint x="757" y="444" as="sourcePoint" />
            <mxPoint x="730" y="570" as="targetPoint" />
            <Array as="points" />
          </mxGeometry>
        </mxCell>
        <mxCell id="fmB1EjqR9Dxc6LO2k5tq-37" value="&amp;lt;&amp;lt;include&amp;gt;&amp;gt;" style="edgeLabel;resizable=0;html=1;;align=center;verticalAlign=middle;labelBackgroundColor=none;" connectable="0" vertex="1" parent="fmB1EjqR9Dxc6LO2k5tq-36">
          <mxGeometry relative="1" as="geometry" />
        </mxCell>
        <mxCell id="fmB1EjqR9Dxc6LO2k5tq-38" value="" style="endArrow=classic;html=1;rounded=0;entryX=0.5;entryY=0;entryDx=0;entryDy=0;exitX=0.5;exitY=1;exitDx=0;exitDy=0;labelBackgroundColor=none;fontColor=default;" edge="1" parent="fmB1EjqR9Dxc6LO2k5tq-1" source="fmB1EjqR9Dxc6LO2k5tq-12" target="fmB1EjqR9Dxc6LO2k5tq-14">
          <mxGeometry relative="1" as="geometry">
            <mxPoint x="767" y="454" as="sourcePoint" />
            <mxPoint x="740" y="580" as="targetPoint" />
            <Array as="points" />
          </mxGeometry>
        </mxCell>
        <mxCell id="fmB1EjqR9Dxc6LO2k5tq-39" value="&amp;lt;&amp;lt;include&amp;gt;&amp;gt;" style="edgeLabel;resizable=0;html=1;;align=center;verticalAlign=middle;labelBackgroundColor=none;" connectable="0" vertex="1" parent="fmB1EjqR9Dxc6LO2k5tq-38">
          <mxGeometry relative="1" as="geometry" />
        </mxCell>
        <mxCell id="fmB1EjqR9Dxc6LO2k5tq-41" value="" style="endArrow=classic;html=1;rounded=0;entryX=0.992;entryY=0.625;entryDx=0;entryDy=0;exitX=0.017;exitY=0.588;exitDx=0;exitDy=0;exitPerimeter=0;entryPerimeter=0;labelBackgroundColor=none;fontColor=default;" edge="1" parent="fmB1EjqR9Dxc6LO2k5tq-1" source="fmB1EjqR9Dxc6LO2k5tq-12" target="fmB1EjqR9Dxc6LO2k5tq-16">
          <mxGeometry relative="1" as="geometry">
            <mxPoint x="777" y="464" as="sourcePoint" />
            <mxPoint x="750" y="590" as="targetPoint" />
          </mxGeometry>
        </mxCell>
        <mxCell id="fmB1EjqR9Dxc6LO2k5tq-42" value="&amp;lt;&amp;lt;include&amp;gt;&amp;gt;" style="edgeLabel;resizable=0;html=1;;align=center;verticalAlign=middle;labelBackgroundColor=none;" connectable="0" vertex="1" parent="fmB1EjqR9Dxc6LO2k5tq-41">
          <mxGeometry relative="1" as="geometry" />
        </mxCell>
        <mxCell id="fmB1EjqR9Dxc6LO2k5tq-43" value="" style="endArrow=classic;html=1;rounded=0;entryX=0.817;entryY=0.05;entryDx=0;entryDy=0;exitX=0.3;exitY=0.95;exitDx=0;exitDy=0;exitPerimeter=0;entryPerimeter=0;labelBackgroundColor=none;fontColor=default;" edge="1" parent="fmB1EjqR9Dxc6LO2k5tq-1" source="fmB1EjqR9Dxc6LO2k5tq-12" target="fmB1EjqR9Dxc6LO2k5tq-15">
          <mxGeometry relative="1" as="geometry">
            <mxPoint x="777" y="464" as="sourcePoint" />
            <mxPoint x="750" y="590" as="targetPoint" />
          </mxGeometry>
        </mxCell>
        <mxCell id="fmB1EjqR9Dxc6LO2k5tq-44" value="&amp;lt;&amp;lt;include&amp;gt;&amp;gt;" style="edgeLabel;resizable=0;html=1;;align=center;verticalAlign=middle;labelBackgroundColor=none;" connectable="0" vertex="1" parent="fmB1EjqR9Dxc6LO2k5tq-43">
          <mxGeometry relative="1" as="geometry" />
        </mxCell>
        <mxCell id="fmB1EjqR9Dxc6LO2k5tq-2" value="User" style="shape=umlActor;verticalLabelPosition=bottom;verticalAlign=top;html=1;outlineConnect=0;labelBackgroundColor=none;" vertex="1" parent="1">
          <mxGeometry x="1220" y="110" width="30" height="60" as="geometry" />
        </mxCell>
        <mxCell id="fmB1EjqR9Dxc6LO2k5tq-21" value="" style="endArrow=none;html=1;rounded=0;exitX=1;exitY=0.688;exitDx=0;exitDy=0;exitPerimeter=0;entryX=0.5;entryY=0.5;entryDx=0;entryDy=0;entryPerimeter=0;labelBackgroundColor=none;fontColor=default;" edge="1" parent="1" source="fmB1EjqR9Dxc6LO2k5tq-5" target="fmB1EjqR9Dxc6LO2k5tq-2">
          <mxGeometry width="50" height="50" relative="1" as="geometry">
            <mxPoint x="1160" y="170" as="sourcePoint" />
            <mxPoint x="1200" y="130" as="targetPoint" />
            <Array as="points" />
          </mxGeometry>
        </mxCell>
        <mxCell id="fmB1EjqR9Dxc6LO2k5tq-22" value="" style="endArrow=none;html=1;rounded=0;exitX=1;exitY=0.5;exitDx=0;exitDy=0;labelBackgroundColor=none;fontColor=default;" edge="1" parent="1" source="fmB1EjqR9Dxc6LO2k5tq-6">
          <mxGeometry width="50" height="50" relative="1" as="geometry">
            <mxPoint x="1190" y="190" as="sourcePoint" />
            <mxPoint x="1230" y="150" as="targetPoint" />
            <Array as="points" />
          </mxGeometry>
        </mxCell>
        <mxCell id="fmB1EjqR9Dxc6LO2k5tq-23" value="" style="endArrow=none;html=1;rounded=0;labelBackgroundColor=none;fontColor=default;" edge="1" parent="1" source="fmB1EjqR9Dxc6LO2k5tq-10" target="fmB1EjqR9Dxc6LO2k5tq-2">
          <mxGeometry width="50" height="50" relative="1" as="geometry">
            <mxPoint x="640" y="400" as="sourcePoint" />
            <mxPoint x="1240" y="170" as="targetPoint" />
            <Array as="points">
              <mxPoint x="1230" y="170" />
              <mxPoint x="1230" y="160" />
              <mxPoint x="1220" y="160" />
            </Array>
          </mxGeometry>
        </mxCell>
        <mxCell id="fmB1EjqR9Dxc6LO2k5tq-24" value="" style="endArrow=none;html=1;rounded=0;entryX=0.333;entryY=0.667;entryDx=0;entryDy=0;entryPerimeter=0;labelBackgroundColor=none;fontColor=default;" edge="1" parent="1" source="fmB1EjqR9Dxc6LO2k5tq-7" target="fmB1EjqR9Dxc6LO2k5tq-2">
          <mxGeometry width="50" height="50" relative="1" as="geometry">
            <mxPoint x="640" y="400" as="sourcePoint" />
            <mxPoint x="690" y="350" as="targetPoint" />
          </mxGeometry>
        </mxCell>
        <mxCell id="fmB1EjqR9Dxc6LO2k5tq-26" value="" style="endArrow=none;html=1;rounded=0;labelBackgroundColor=none;fontColor=default;" edge="1" parent="1" source="fmB1EjqR9Dxc6LO2k5tq-9" target="fmB1EjqR9Dxc6LO2k5tq-2">
          <mxGeometry width="50" height="50" relative="1" as="geometry">
            <mxPoint x="640" y="400" as="sourcePoint" />
            <mxPoint x="690" y="350" as="targetPoint" />
          </mxGeometry>
        </mxCell>
      </root>
    </mxGraphModel>
  </diagram>
</mxfile>
